#N canvas 313 59 799 741 10;
#X obj 295 586 dac~;
#X obj 302 535 *~;
#X obj 341 496 line~;
#X msg 427 485 0 10;
#X msg 364 459 0.5 10;
#X obj 437 344 tgl 15 0 empty empty empty 17 7 0 10 -262144 -1 -1 0
1;
#X obj 437 403 bng 15 250 50 0 empty empty empty 17 7 0 10 -262144
-1 -1;
#X obj 437 373 metro 1000;
#X msg 489 270 60000;
#X floatatom 561 270 5 0 0 0 - - -;
#X text 537 270 BPM;
#X obj 511 306 /;
#X floatatom 515 351 5 0 0 0 - - -;
#X text 500 199 BPM;
#X floatatom 524 189 5 0 0 0 - - -;
#X obj 516 228 t b f;
#X obj 282 119 bng 15 250 50 0 empty empty empty 17 7 0 10 -262144
-1 -1;
#X obj 280 158 f 0;
#X obj 280 193 + 1;
#X floatatom 281 237 5 0 0 0 - - -;
#X floatatom 347 307 5 0 0 0 - - -;
#X msg 305 309 0;
#X obj 294 334 t b;
#X obj 302 274 sel 6;
#X obj 170 272 sel 1 2 3 4 5;
#X obj 428 458 delay 50;
#X obj 299 441 osc~ 440;
#X msg 214 381 1580;
#X msg 298 382 1020;
#X msg 350 388 1110;
#X msg 166 380 1020;
#X msg 117 377 1260;
#X obj 119 325 del 1000;
#X msg 257 382 840;
#X connect 1 0 0 0;
#X connect 1 0 0 1;
#X connect 2 0 1 1;
#X connect 3 0 2 0;
#X connect 4 0 2 0;
#X connect 5 0 7 0;
#X connect 6 0 4 0;
#X connect 6 0 16 0;
#X connect 6 0 25 0;
#X connect 7 0 6 0;
#X connect 8 0 11 0;
#X connect 9 0 11 1;
#X connect 11 0 12 0;
#X connect 12 0 7 1;
#X connect 14 0 15 0;
#X connect 15 0 8 0;
#X connect 15 1 9 0;
#X connect 16 0 17 0;
#X connect 17 0 18 0;
#X connect 18 0 19 0;
#X connect 19 0 23 0;
#X connect 19 0 24 0;
#X connect 20 0 17 1;
#X connect 21 0 20 0;
#X connect 22 0 29 0;
#X connect 23 0 21 0;
#X connect 23 1 20 0;
#X connect 24 0 31 0;
#X connect 24 0 32 0;
#X connect 24 1 30 0;
#X connect 24 2 27 0;
#X connect 24 2 30 0;
#X connect 24 2 33 0;
#X connect 24 3 32 0;
#X connect 24 3 28 0;
#X connect 24 4 28 0;
#X connect 24 4 33 0;
#X connect 24 5 22 0;
#X connect 24 5 27 0;
#X connect 25 0 3 0;
#X connect 26 0 1 0;
#X connect 27 0 26 0;
#X connect 28 0 26 0;
#X connect 29 0 26 0;
#X connect 30 0 26 0;
#X connect 31 0 26 0;
#X connect 32 0 31 0;
#X connect 32 0 30 0;
#X connect 32 0 27 0;
#X connect 33 0 26 0;
